<?xml version="1.0" standalone="no"?>
<!DOCTYPE svg PUBLIC "-//W3C//DTD SVG 20010904//EN"
 "http://www.w3.org/TR/2001/REC-SVG-20010904/DTD/svg10.dtd">
<svg version="1.0" xmlns="http://www.w3.org/2000/svg"
 width="971.000000pt" height="421.000000pt" viewBox="0 0 971.000000 421.000000"
 preserveAspectRatio="xMidYMid meet">

<g transform="translate(0.000000,421.000000) scale(0.100000,-0.100000)"
fill="#000000" stroke="none">
<path d="M5373 3390 c-17 -10 -37 -29 -44 -41 -9 -17 -10 -137 -4 -498 4 -262
8 -505 10 -541 1 -36 6 -209 10 -385 l7 -320 -31 -82 c-54 -145 -108 -235
-160 -266 -51 -30 -58 -18 -59 101 -1 59 3 213 8 342 15 385 -8 529 -102 635
-46 53 -96 75 -170 75 -78 0 -145 -35 -206 -106 l-40 -47 -11 40 c-40 147
-297 215 -340 91 -13 -38 -14 -186 -1 -418 14 -263 15 -366 4 -382 -6 -7 -17
-29 -24 -48 -37 -97 -168 -260 -210 -260 -27 0 -54 57 -70 145 -14 80 -10 324
9 686 15 271 14 278 -57 317 -87 48 -218 38 -278 -22 -29 -29 -32 -38 -38
-116 -37 -506 -23 -727 59 -906 42 -92 92 -146 171 -185 56 -28 71 -31 131
-27 108 6 209 70 282 179 l39 58 7 -57 c10 -90 26 -131 64 -168 49 -47 101
-63 136 -40 45 30 57 77 66 251 13 263 39 502 65 604 41 164 119 301 188 335
28 13 32 13 40 -1 12 -22 10 -441 -3 -528 -25 -167 -7 -384 38 -478 42 -86
170 -177 250 -177 19 0 54 9 78 21 43 21 127 105 146 147 16 34 24 27 31 -27
8 -61 40 -109 91 -138 79 -45 125 -19 144 80 5 29 13 193 18 365 8 253 12 315
24 323 20 12 93 11 123 -2 15 -7 34 -32 48 -63 22 -49 23 -62 23 -286 0 -159
5 -249 13 -277 29 -96 130 -177 254 -204 156 -33 313 57 444 251 27 41 53 76
58 78 4 2 19 -19 31 -47 54 -116 175 -201 287 -201 106 0 223 75 303 193 l33
49 23 -47 c58 -116 188 -205 333 -226 224 -34 426 83 538 311 73 148 96 230
64 230 -26 0 -54 -35 -81 -105 -62 -162 -146 -275 -239 -320 -112 -54 -192
-43 -271 39 -81 83 -135 255 -135 431 l0 83 128 41 c190 60 337 101 362 101
45 0 102 24 127 54 29 35 28 67 -7 158 -48 127 -133 212 -249 248 -75 24 -121
25 -194 6 -160 -42 -285 -159 -372 -350 -57 -124 -68 -183 -71 -375 l-3 -174
-41 -68 c-44 -71 -138 -169 -164 -169 -62 0 -96 223 -77 505 32 487 34 550 17
587 -27 56 -85 83 -181 83 -65 0 -87 -4 -121 -23 -22 -13 -45 -32 -52 -43 -28
-45 -50 -525 -33 -706 l12 -121 -35 -69 c-112 -223 -298 -380 -380 -320 -25
18 -37 129 -35 322 2 169 -5 237 -29 295 -35 87 -123 156 -227 180 -27 7 -57
14 -65 16 -8 3 19 24 65 50 106 60 293 185 328 218 23 21 28 33 25 63 -4 53
-42 78 -117 78 -64 0 -80 -9 -186 -100 -85 -74 -255 -205 -266 -205 -11 0 -12
-2 6 475 19 521 19 678 1 713 -29 54 -95 102 -168 120 -63 16 -78 15 -115 -8z
m2458 -1182 c39 -22 84 -82 109 -146 16 -42 13 -44 -85 -68 -38 -9 -132 -36
-208 -59 -75 -23 -139 -39 -142 -35 -6 10 18 97 43 152 68 155 178 215 283
156z"/>
<path d="M720 3369 c-52 -23 -97 -63 -113 -99 -14 -31 -20 -134 -43 -730 -16
-421 -16 -523 -5 -901 13 -475 21 -532 73 -586 34 -35 82 -48 121 -34 62 24
107 188 107 386 0 68 4 126 8 129 5 3 19 -27 32 -67 62 -190 158 -315 295
-383 202 -100 454 -48 640 131 290 281 423 818 350 1415 -18 140 -71 318 -141
468 -72 154 -184 251 -327 283 -48 10 -73 10 -135 0 -201 -34 -346 -127 -461
-294 -53 -77 -150 -283 -185 -390 -12 -38 -25 -4 -21 56 3 34 10 173 16 309
13 269 10 295 -37 317 -39 17 -124 13 -174 -10z m862 -89 c58 -17 133 -92 173
-174 130 -272 166 -876 76 -1291 -67 -305 -241 -567 -398 -600 -44 -9 -133 18
-199 60 -127 81 -216 214 -281 418 -19 59 -30 80 -50 91 l-26 13 2 129 c4 228
35 412 115 674 145 476 372 739 588 680z"/>
<path d="M3774 2955 c-85 -44 -128 -123 -127 -235 1 -122 34 -179 106 -187 47
-6 49 -4 91 41 39 41 46 58 71 153 15 60 29 120 32 136 11 58 -39 117 -100
117 -12 0 -45 -11 -73 -25z"/>
<path d="M6792 2969 c-52 -15 -118 -90 -136 -153 -26 -88 -15 -200 25 -250 21
-27 74 -42 111 -32 37 9 88 81 105 144 8 31 24 88 35 126 26 90 15 140 -37
162 -39 16 -56 16 -103 3z"/>
<path d="M2395 2454 c-39 -9 -67 -29 -81 -56 -17 -33 -19 -299 -4 -510 6 -76
14 -243 19 -373 11 -266 19 -300 89 -349 54 -37 89 -41 142 -13 102 52 142
165 190 527 47 351 119 529 249 611 53 34 109 38 134 11 9 -10 21 -41 27 -70
13 -59 50 -97 105 -108 104 -19 206 56 179 133 -15 43 -140 109 -234 124 -97
15 -160 6 -237 -31 -78 -38 -133 -100 -183 -205 -61 -126 -80 -202 -134 -545
-13 -86 -30 -176 -37 -200 l-14 -45 -3 45 c-2 24 2 105 8 180 7 74 16 182 21
240 6 58 12 193 15 300 l6 195 -37 43 c-56 65 -159 110 -220 96z"/>
<path d="M8553 2410 c-156 -56 -251 -182 -261 -348 -9 -156 40 -265 189 -421
96 -99 139 -152 163 -198 l16 -33 -45 -55 c-58 -72 -82 -120 -90 -181 -14
-100 41 -161 134 -152 97 10 187 82 244 197 31 63 32 70 32 186 l0 120 42 23
c47 26 147 62 240 88 68 18 89 34 79 60 -5 13 -15 15 -49 10 -59 -10 -233 -69
-290 -99 -26 -14 -53 -24 -60 -21 -7 2 -22 21 -34 42 -12 21 -67 89 -123 150
-152 166 -180 217 -180 327 0 98 54 159 124 141 45 -11 68 -60 63 -137 -5 -80
3 -96 48 -105 136 -25 199 162 103 304 -71 104 -218 147 -345 102z m142 -1110
c11 -36 -5 -96 -35 -131 -24 -28 -31 -31 -39 -19 -13 19 -3 64 26 123 25 51
38 58 48 27z"/>
</g>
</svg>
