<?xml version="1.0" standalone="no"?>
<!DOCTYPE svg PUBLIC "-//W3C//DTD SVG 20010904//EN"
 "http://www.w3.org/TR/2001/REC-SVG-20010904/DTD/svg10.dtd">
<svg version="1.0" xmlns="http://www.w3.org/2000/svg"
 width="1724.000000pt" height="1157.000000pt" viewBox="0 0 1724.000000 1157.000000"
 preserveAspectRatio="xMidYMid meet">

<g transform="translate(0.000000,1157.000000) scale(0.100000,-0.100000)"
fill="#000000" stroke="none">
<path d="M2100 8601 c-454 -99 -789 -480 -840 -956 -21 -194 13 -383 104 -570
161 -329 460 -547 814 -595 187 -26 412 8 579 85 56 26 74 39 69 50 -13 34
-102 134 -116 130 -8 -2 -42 -15 -76 -29 -93 -39 -170 -57 -276 -63 -542 -33
-986 455 -904 993 53 351 285 636 606 745 82 28 112 33 220 37 140 4 224 -9
336 -54 241 -96 450 -305 526 -526 l23 -68 97 0 97 0 -15 53 c-83 280 -328
556 -617 692 -148 70 -219 87 -392 91 -120 3 -167 0 -235 -15z"/>
<path d="M5819 8257 c-42 -56 -163 -216 -268 -354 l-192 -253 128 0 128 0 175
225 175 225 568 0 567 0 0 130 0 130 -602 0 -603 -1 -76 -102z"/>
<path d="M2282 8272 c-36 -11 -93 -62 -108 -98 -30 -71 -14 -140 111 -499 4
-11 -34 62 -85 163 -103 206 -141 255 -212 269 -116 24 -217 -55 -218 -170 0
-92 44 -137 227 -229 67 -34 121 -63 120 -64 -2 -2 -51 12 -111 31 -210 67
-268 69 -333 12 -109 -96 -70 -270 69 -308 52 -14 115 0 293 63 77 27 151 52
165 54 l25 4 -25 -12 c-328 -156 -385 -191 -414 -252 -63 -133 66 -288 205
-247 73 22 103 60 205 265 53 105 93 182 89 171 -4 -11 -33 -99 -66 -195 -79
-235 -78 -298 7 -368 120 -99 297 -1 281 155 -5 48 -55 203 -122 378 -22 60
-23 67 -7 50 10 -11 269 -339 574 -730 305 -390 690 -883 856 -1095 l302 -385
0 -715 0 -715 -375 -375 -375 -375 0 -58 0 -57 893 2 892 3 3 56 3 57 -390
368 -389 369 -1 725 -1 725 189 240 c104 132 515 656 915 1165 l725 925 -1887
5 c-1856 5 -1886 5 -1837 24 128 47 328 168 383 230 73 83 43 215 -61 265 -54
26 -99 26 -154 1 -53 -23 -87 -75 -189 -283 -41 -84 -71 -143 -68 -132 4 11
28 83 55 160 57 165 75 247 65 297 -17 92 -129 157 -224 130z m3461 -964
c-243 -308 -1186 -1506 -1312 -1665 -96 -123 -178 -219 -182 -215 -4 4 -109
137 -234 296 -662 840 -1239 1572 -1247 1584 -8 9 290 12 1487 12 1197 0 1495
-3 1488 -12z m-1667 -3840 c-24 -51 -77 -162 -117 -245 l-73 -153 -115 0 -114
0 24 27 c65 72 432 463 435 463 2 0 -16 -42 -40 -92z"/>
<path d="M3354 6784 c4 -9 870 -1099 895 -1127 4 -4 57 55 118 130 60 76 266
332 457 568 l346 430 -616 3 c-340 1 -619 0 -621 -2 -3 -2 57 -169 132 -371
75 -202 135 -369 133 -371 -2 -1 -129 165 -281 371 l-278 374 -145 3 c-104 2
-143 0 -140 -8z"/>
<path d="M11765 7739 c-16 -6 -83 -11 -147 -11 -107 -1 -118 -3 -118 -20 0
-12 7 -18 24 -18 42 0 75 -18 96 -52 19 -32 20 -51 20 -626 0 -385 -4 -600
-10 -612 -13 -25 -45 -42 -90 -50 -20 -3 -36 -12 -38 -20 -2 -13 27 -15 213
-15 192 0 215 2 215 16 0 11 -12 18 -38 23 -73 11 -77 22 -80 248 l-3 201 32
-7 c18 -3 43 -13 55 -21 20 -13 258 -350 271 -383 7 -17 -16 -42 -38 -42 -12
0 -19 -7 -19 -18 0 -17 13 -18 175 -18 159 1 175 3 175 18 0 10 -10 20 -24 24
-13 3 -39 22 -59 42 -35 38 -367 487 -367 498 0 4 55 65 122 136 117 125 173
169 231 182 15 4 27 13 27 21 0 12 -32 15 -180 17 -161 3 -180 1 -180 -13 0
-12 13 -18 43 -23 78 -13 104 -46 75 -99 -6 -12 -53 -68 -105 -124 -65 -70
-110 -110 -146 -127 -95 -48 -87 -88 -87 429 0 250 -3 455 -7 454 -5 0 -21 -5
-38 -10z"/>
<path d="M10014 7676 c-26 -26 -34 -42 -34 -70 0 -49 23 -92 60 -111 82 -42
170 14 170 111 0 28 -8 44 -34 70 -29 29 -41 34 -81 34 -40 0 -52 -5 -81 -34z"/>
<path d="M7762 7591 c2 -11 19 -18 53 -23 36 -5 56 -14 73 -33 l22 -27 -2
-553 c-3 -631 3 -587 -91 -602 -35 -6 -53 -13 -55 -24 -3 -15 27 -16 315 -15
271 2 328 4 382 20 209 57 360 203 423 406 20 66 23 95 23 245 0 159 -2 175
-28 248 -51 146 -132 243 -252 302 -133 66 -154 68 -528 71 -307 2 -338 0
-335 -15z m638 -33 c161 -39 260 -146 307 -333 25 -103 25 -409 -1 -520 -46
-197 -134 -297 -298 -340 -76 -21 -217 -27 -258 -13 -66 24 -65 12 -65 613 0
602 -2 583 68 604 37 12 180 5 247 -11z"/>
<path d="M15364 7554 c-7 -3 -41 -8 -75 -12 l-64 -7 -3 -142 -3 -143 -89 0
c-73 0 -90 -3 -90 -15 0 -12 17 -15 90 -15 l90 0 0 -337 c0 -186 5 -365 10
-398 21 -126 98 -196 221 -197 35 -1 81 4 101 11 48 16 102 79 128 148 24 63
25 89 6 96 -10 4 -20 -12 -35 -53 -25 -67 -74 -125 -114 -135 -41 -11 -91 2
-118 31 l-24 26 -3 404 -3 404 136 0 c113 0 135 2 135 15 0 13 -22 15 -135 15
l-135 0 0 155 c0 85 -3 155 -7 154 -5 0 -13 -3 -19 -5z"/>
<path d="M9554 7261 c-54 -25 -107 -79 -147 -149 l-32 -57 -3 108 -3 108 -47
-8 c-26 -4 -93 -8 -149 -8 -87 0 -103 -2 -103 -16 0 -10 17 -21 47 -30 28 -9
54 -25 67 -42 20 -28 21 -40 21 -392 l0 -365 -26 -26 c-16 -16 -41 -28 -67
-31 -30 -4 -42 -10 -42 -22 0 -14 27 -16 250 -17 227 0 250 1 250 17 0 12 -12
18 -48 21 -59 6 -99 25 -126 61 -20 27 -21 40 -21 290 0 248 1 265 23 318 53
131 134 209 219 209 24 0 43 -3 43 -6 0 -3 -11 -19 -25 -36 -39 -47 -37 -101
6 -140 67 -63 164 -8 164 93 0 41 -23 79 -68 113 -39 29 -130 32 -183 7z"/>
<path d="M10930 7262 c-78 -29 -121 -63 -161 -125 l-39 -60 0 98 0 97 -27 -6
c-16 -4 -85 -9 -155 -13 -92 -4 -128 -9 -128 -18 0 -7 17 -16 37 -20 103 -19
103 -21 103 -439 0 -195 -4 -356 -10 -370 -11 -30 -57 -56 -100 -56 -22 0 -30
-5 -30 -18 0 -16 16 -17 215 -17 192 0 215 2 215 16 0 11 -12 18 -38 23 -21 3
-47 15 -58 27 -18 20 -19 39 -19 323 l0 301 27 57 c31 66 95 132 145 149 50
16 147 7 174 -17 47 -41 49 -61 49 -434 l0 -352 -29 -29 c-20 -19 -40 -29 -60
-29 -23 0 -31 -5 -31 -17 0 -17 17 -18 215 -18 199 0 215 1 215 17 0 13 -8 18
-25 18 -44 0 -91 26 -103 56 -7 19 -12 143 -14 364 -3 296 -5 340 -21 375 -40
89 -104 127 -222 132 -58 2 -93 -2 -125 -15z"/>
<path d="M13505 7267 c-89 -30 -142 -73 -189 -157 l-26 -45 0 103 0 103 -47
-8 c-27 -4 -94 -8 -150 -8 -87 0 -103 -2 -103 -16 0 -10 17 -21 47 -30 28 -9
54 -25 67 -42 20 -28 21 -40 21 -392 l0 -365 -26 -26 c-16 -16 -41 -28 -67
-31 -30 -4 -42 -10 -42 -22 0 -15 22 -17 210 -16 193 0 210 1 210 18 0 10 -8
17 -20 17 -41 0 -79 29 -89 68 -17 58 -14 483 4 566 32 150 121 236 245 236
66 0 103 -20 126 -67 17 -35 19 -68 22 -378 2 -310 1 -343 -15 -375 -15 -28
-26 -37 -60 -44 -28 -7 -43 -15 -43 -25 0 -14 27 -16 210 -16 193 0 210 1 210
18 0 11 -8 17 -24 17 -40 0 -74 17 -93 47 -16 24 -19 62 -23 373 l-5 346 -26
49 c-38 76 -97 108 -202 112 -50 2 -98 -2 -122 -10z"/>
<path d="M14426 7270 c-63 -16 -155 -71 -192 -114 -76 -89 -114 -213 -114
-376 0 -170 39 -287 126 -380 135 -144 411 -154 558 -19 30 27 66 70 81 94 83
142 88 441 10 595 -40 78 -118 152 -190 180 -68 25 -214 36 -279 20z m220 -66
c95 -77 128 -198 121 -454 -5 -224 -23 -289 -101 -367 -42 -42 -59 -52 -99
-58 -104 -16 -195 56 -238 187 -22 67 -24 90 -24 268 0 175 2 203 23 267 25
82 71 147 122 175 54 30 148 21 196 -18z"/>
<path d="M10100 7258 c-30 -5 -90 -8 -133 -6 -65 3 -77 0 -77 -13 0 -10 17
-21 47 -30 36 -11 52 -22 68 -49 19 -33 20 -55 23 -330 5 -430 -1 -464 -96
-477 -30 -4 -42 -10 -42 -22 0 -14 24 -16 220 -16 203 0 220 1 220 17 0 12 -8
18 -24 18 -12 0 -38 5 -56 11 -59 21 -60 32 -60 494 0 389 -1 415 -17 414 -10
-1 -43 -6 -73 -11z"/>
<path d="M8133 5180 c-99 -21 -175 -87 -213 -186 -14 -38 -26 -104 -33 -181
l-11 -123 -68 0 c-54 0 -68 -3 -68 -15 0 -12 14 -15 70 -15 l70 0 0 -394 c0
-227 -4 -405 -10 -420 -11 -30 -57 -56 -100 -56 -22 0 -30 -5 -30 -17 0 -17
19 -18 250 -18 225 0 250 1 250 16 0 12 -13 18 -49 22 -28 3 -64 13 -80 22
-60 31 -61 35 -61 460 l0 385 95 0 c78 0 95 3 95 15 0 12 -17 15 -95 15 l-95
0 0 145 c0 178 12 239 55 282 47 47 120 56 169 20 19 -14 19 -15 -11 -30 -90
-47 -53 -177 51 -177 38 0 48 5 71 32 22 27 26 39 23 73 -3 23 -13 54 -23 69
-38 57 -161 95 -252 76z"/>
<path d="M12310 5179 c-19 -5 -86 -10 -147 -11 -103 -1 -113 -3 -113 -20 0
-13 7 -18 25 -18 42 0 85 -29 101 -65 10 -26 14 -85 14 -238 l0 -204 -36 33
c-102 97 -321 79 -447 -36 -104 -95 -147 -214 -147 -405 0 -183 33 -296 112
-381 135 -146 395 -145 489 4 l29 46 0 -78 c0 -70 2 -77 18 -71 30 12 165 22
230 17 58 -4 62 -3 62 17 0 16 -6 21 -24 21 -42 0 -75 18 -96 52 -19 32 -20
51 -20 691 0 361 -3 657 -7 656 -5 -1 -24 -5 -43 -10z m-208 -531 c25 -14 52
-39 65 -63 22 -39 23 -47 23 -330 0 -283 -1 -291 -24 -340 -24 -52 -80 -109
-123 -126 -70 -27 -168 3 -221 67 -108 130 -120 529 -22 701 31 55 80 98 127
113 44 15 129 4 175 -22z"/>
<path d="M12740 5177 c-58 -30 -60 -62 -25 -407 14 -135 31 -338 37 -452 9
-157 15 -208 25 -208 9 0 13 14 13 43 0 86 21 370 46 617 28 283 28 361 -2
390 -26 26 -64 33 -94 17z"/>
<path d="M8668 4701 c-74 -24 -116 -51 -166 -105 -82 -89 -115 -196 -115 -376
0 -178 39 -297 129 -387 148 -148 447 -141 583 14 83 94 116 202 115 378 -1
239 -74 383 -233 458 -84 40 -224 48 -313 18z m228 -47 c97 -63 144 -207 144
-437 -1 -237 -53 -381 -160 -434 -113 -58 -231 9 -283 160 -54 159 -43 489 22
615 20 38 70 91 106 110 11 6 45 12 75 12 44 0 65 -6 96 -26z"/>
<path d="M10930 4702 c-78 -29 -121 -63 -161 -125 l-39 -60 0 98 0 97 -27 -6
c-16 -4 -85 -9 -155 -13 -92 -4 -128 -9 -128 -18 0 -7 17 -16 37 -20 103 -19
103 -21 103 -439 0 -195 -4 -356 -10 -370 -11 -30 -57 -56 -100 -56 -22 0 -30
-5 -30 -18 0 -16 16 -17 215 -17 192 0 215 2 215 16 0 11 -12 18 -38 23 -21 3
-47 15 -58 27 -18 20 -19 39 -19 323 l0 301 27 57 c31 66 95 132 145 149 50
16 147 7 174 -17 47 -41 49 -61 49 -434 l0 -352 -29 -29 c-20 -19 -40 -29 -60
-29 -23 0 -31 -5 -31 -17 0 -17 17 -18 215 -18 199 0 215 1 215 17 0 13 -8 18
-25 18 -44 0 -91 26 -103 56 -7 19 -12 143 -14 364 -3 296 -5 340 -21 375 -40
89 -104 127 -222 132 -58 2 -93 -2 -125 -15z"/>
<path d="M9560 4699 c-25 -4 -87 -8 -137 -8 -72 -1 -93 -4 -93 -15 0 -8 16
-17 37 -21 100 -18 103 -30 103 -367 1 -418 15 -480 125 -533 45 -22 69 -27
130 -27 126 0 219 57 281 172 l19 35 3 -103 c2 -94 4 -103 20 -96 9 4 77 9
150 12 121 4 132 6 132 23 0 14 -7 19 -25 19 -15 0 -38 6 -54 14 -55 29 -56
35 -59 489 l-3 418 -47 -8 c-26 -4 -93 -8 -149 -8 -90 0 -103 -2 -103 -17 0
-12 11 -19 35 -24 96 -18 108 -64 103 -392 -4 -259 -11 -292 -74 -384 -74
-107 -236 -128 -288 -38 -20 34 -21 52 -24 453 -3 386 -4 417 -20 416 -9 -1
-37 -5 -62 -10z"/>
<path d="M12724 3944 c-65 -32 -84 -118 -38 -173 90 -108 254 4 189 129 -28
54 -92 73 -151 44z"/>
</g>
</svg>
